<svg width="12" height="10" viewBox="0 0 12 10" fill="none" xmlns="http://www.w3.org/2000/svg">
<path fill-rule="evenodd" clip-rule="evenodd" d="M1 4.43978C1 4.30096 1.14147 4.09473 1.28095 4.09473H3.69518C3.83554 4.09473 3.87356 4.30207 3.87356 4.43978V9.14844C3.87356 9.28726 3.83488 9.39977 3.69518 9.39977H1.28095C1.14058 9.39977 1 9.28615 1 9.14844V4.43978V4.43978Z" stroke="white"/>
<path d="M7.41026 3.65259H10.145C10.4688 3.65259 10.7544 4.48238 10.6899 4.78632C10.6899 4.78632 9.90761 7.94879 9.71751 8.44017C9.5272 8.93154 8.89037 8.95763 8.75376 8.95763H8.29444" stroke="white" stroke-linecap="round" stroke-linejoin="bevel"/>
<path d="M4.1011 4.78431L4.60199 4.58559L5.66963 2.69213C5.66963 2.69213 5.62741 1.68859 5.73373 1.38665C5.84027 1.08492 6.81905 0.534748 7.39531 1.76795C7.97135 3.00093 7.39531 3.69014 7.39531 3.69014" stroke="white" stroke-linecap="round"/>
<path d="M5.83254 9.00795C5.32945 8.83313 4.03458 8.36938 4.03458 8.36938" stroke="white" stroke-linecap="round" stroke-linejoin="bevel"/>
<path d="M5.86295 8.98218H8.73651" stroke="white" stroke-linecap="round"/>
</svg>
