<svg width="17" height="17" viewBox="0 0 17 17" fill="none" xmlns="http://www.w3.org/2000/svg">
<path fill-rule="evenodd" clip-rule="evenodd" d="M8.5 16C12.6421 16 16 12.6421 16 8.5C16 4.35786 12.6421 1 8.5 1C4.35786 1 1 4.35786 1 8.5C1 12.6421 4.35786 16 8.5 16Z" fill="#C7AE6E" stroke="white" stroke-width="2"/>
<path fill-rule="evenodd" clip-rule="evenodd" d="M11.8436 6.45129C11.6024 6.21008 11.2113 6.21008 10.9701 6.45129L7.64514 9.77624L6.33247 8.46357C6.09126 8.22236 5.70019 8.22236 5.45898 8.46357C5.21777 8.70477 5.21777 9.09585 5.45898 9.33705L7.18244 11.0605C7.23783 11.1159 7.30112 11.1586 7.36869 11.1885C7.6015 11.3099 7.89546 11.2729 8.09097 11.0774L11.8436 7.32478C12.0848 7.08357 12.0848 6.6925 11.8436 6.45129Z" fill="white"/>
</svg>
