<svg width="13" height="13" viewBox="0 0 13 13" fill="none" xmlns="http://www.w3.org/2000/svg">
<path fill-rule="evenodd" clip-rule="evenodd" d="M6.38314 11.859C9.34271 11.859 11.7421 9.45959 11.7421 6.50003C11.7421 3.54046 9.34271 1.14105 6.38314 1.14105C3.42358 1.14105 1.02417 3.54046 1.02417 6.50003C1.02417 9.45959 3.42358 11.859 6.38314 11.859V11.859Z" stroke="#9B9B9B" stroke-linecap="round"/>
<path fill-rule="evenodd" clip-rule="evenodd" d="M10.0168 4.19334C9.75901 3.93555 9.34106 3.93555 9.08327 4.19334L5.52977 7.74684L4.12687 6.34393C3.86908 6.08615 3.45113 6.08615 3.19334 6.34393C2.93555 6.60172 2.93555 7.01967 3.19334 7.27746L5.03526 9.11938C5.09446 9.17858 5.16211 9.22419 5.23432 9.2562C5.48313 9.38596 5.7973 9.34637 6.00624 9.13743L10.0168 5.12687C10.2746 4.86908 10.2746 4.45113 10.0168 4.19334Z" fill="#9B9B9B"/>
</svg>
