<svg width="14" height="15" viewBox="0 0 14 15" fill="none" xmlns="http://www.w3.org/2000/svg">
<path d="M13 10.7143C13 8.82086 10.3138 7.28572 7 7.28572C3.6862 7.28572 1 8.82086 1 10.7143" stroke="#9B9B9B" stroke-linecap="round"/>
<path fill-rule="evenodd" clip-rule="evenodd" d="M7.00003 7.28571C8.73575 7.28571 10.1429 5.87857 10.1429 4.14286C10.1429 2.40714 8.73575 1 7.00003 1C5.26432 1 3.85718 2.40714 3.85718 4.14286C3.85718 5.87857 5.26432 7.28571 7.00003 7.28571V7.28571Z" stroke="#9B9B9B" stroke-linecap="round"/>
<path d="M13 11.2857V13.1614C13 13.3289 12.9403 13.5714 12.7663 13.5714H1.3837C1.2133 13.5714 1 13.3269 1 13.1614V11.2857" stroke="#9B9B9B" stroke-linecap="round"/>
</svg>
