<svg width="16" height="17" viewBox="0 0 16 17" fill="none" xmlns="http://www.w3.org/2000/svg">
<path fill-rule="evenodd" clip-rule="evenodd" d="M15.1926 1.71536L11.4717 0.226992C11.1536 0.101811 10.7958 0.129233 10.5005 0.301411C10.2052 0.129233 9.84738 0.101811 9.52934 0.226992L5.80841 1.71536C5.7584 1.7354 5.7099 1.75902 5.66329 1.78606C5.61669 1.75902 5.56819 1.7354 5.51818 1.71536L1.79725 0.226992C1.45322 0.0899795 1.06365 0.132488 0.757266 0.340469C0.450886 0.548449 0.267586 0.894828 0.267944 1.26513V13.5442C0.267502 14.0017 0.54621 14.4131 0.971201 14.5823L4.69213 16.0707C5.01017 16.1959 5.36804 16.1685 5.66329 15.9963C5.95855 16.1685 6.31641 16.1959 6.63446 16.0707L10.3554 14.5823C10.4054 14.5623 10.4539 14.5387 10.5005 14.5116C10.5471 14.5387 10.5956 14.5623 10.6456 14.5823L14.3665 16.0707C14.7106 16.2077 15.1002 16.1652 15.4065 15.9572C15.7129 15.7493 15.8962 15.4029 15.8959 15.0326V2.7535C15.8963 2.29605 15.6176 1.88462 15.1926 1.71536ZM1.38422 13.5442V1.26513L5.10515 2.7535V15.0326L1.38422 13.5442ZM11.0586 13.5442L14.7796 15.0326V2.7535L11.0586 1.26513V13.5442Z" fill="white"/>
</svg>
