<svg width="16" height="17" viewBox="0 0 16 17" fill="none" xmlns="http://www.w3.org/2000/svg">
<path fill-rule="evenodd" clip-rule="evenodd" d="M15.1926 1.71536L11.4716 0.226992C11.1536 0.101811 10.7957 0.129233 10.5005 0.301411C10.2052 0.129233 9.84734 0.101811 9.5293 0.226992L5.80837 1.71536C5.75836 1.7354 5.70986 1.75902 5.66326 1.78606C5.61665 1.75902 5.56815 1.7354 5.51814 1.71536L1.79721 0.226992C1.45319 0.0899795 1.06361 0.132488 0.757228 0.340469C0.450848 0.548449 0.267548 0.894828 0.267907 1.26513V13.5442C0.267464 14.0017 0.546172 14.4131 0.971163 14.5823L4.69209 16.0707C5.01014 16.1959 5.368 16.1685 5.66326 15.9963C5.95851 16.1685 6.31638 16.1959 6.63442 16.0707L10.3553 14.5823C10.4054 14.5623 10.4539 14.5387 10.5005 14.5116C10.5471 14.5387 10.5956 14.5623 10.6456 14.5823L14.3665 16.0707C14.7105 16.2077 15.1001 16.1652 15.4065 15.9572C15.7129 15.7493 15.8962 15.4029 15.8958 15.0326V2.7535C15.8963 2.29605 15.6175 1.88462 15.1926 1.71536ZM1.38419 13.5442V1.26513L5.10512 2.7535V15.0326L1.38419 13.5442ZM6.2214 15.0326V2.7535L9.94233 1.26513V13.5442L6.2214 15.0326ZM14.7795 15.0326L11.0586 13.5442V1.26513L14.7795 2.7535V15.0326Z" fill="white"/>
</svg>
