<svg width="16" height="15" viewBox="0 0 16 15" fill="none" xmlns="http://www.w3.org/2000/svg">
<path fill-rule="evenodd" clip-rule="evenodd" d="M12.7004 1.20888C13.8787 1.20888 14.8338 2.164 14.8338 3.34221V9.0311C14.8338 10.2093 13.8787 11.1644 12.7004 11.1644H6.21156L3.81156 13.2978V11.1644H3.456C2.27779 11.1644 1.32267 10.2093 1.32267 9.0311V3.34221C1.32267 2.164 2.27779 1.20888 3.456 1.20888H12.7004ZM12.7004 0.142212H3.456C1.68869 0.142212 0.256001 1.5749 0.256001 3.34221V9.0311C0.255165 10.5251 1.28824 11.8209 2.74489 12.1529V13.2978C2.74434 13.7187 2.99134 14.1005 3.37545 14.2726C3.75956 14.4447 4.20895 14.3748 4.52267 14.0942L6.62045 12.2311H12.7004C14.4678 12.2311 15.9004 10.7984 15.9004 9.0311V3.34221C15.9004 1.5749 14.4678 0.142212 12.7004 0.142212V0.142212Z" fill="white"/>
<path fill-rule="evenodd" clip-rule="evenodd" d="M8.07822 6.71999C8.37277 6.71999 8.61155 6.48121 8.61155 6.18665C8.61155 5.8921 8.37277 5.65332 8.07822 5.65332C7.78367 5.65332 7.54489 5.8921 7.54489 6.18665C7.54489 6.48121 7.78367 6.71999 8.07822 6.71999Z" fill="white"/>
<path fill-rule="evenodd" clip-rule="evenodd" d="M11.6338 6.71999C11.9283 6.71999 12.1671 6.48121 12.1671 6.18665C12.1671 5.8921 11.9283 5.65332 11.6338 5.65332C11.3392 5.65332 11.1004 5.8921 11.1004 6.18665C11.1004 6.48121 11.3392 6.71999 11.6338 6.71999Z" fill="white"/>
<path fill-rule="evenodd" clip-rule="evenodd" d="M4.56533 6.71999C4.85989 6.71999 5.09867 6.48121 5.09867 6.18665C5.09867 5.8921 4.85989 5.65332 4.56533 5.65332C4.27078 5.65332 4.032 5.8921 4.032 6.18665C4.032 6.48121 4.27078 6.71999 4.56533 6.71999Z" fill="white"/>
</svg>
