<svg width="14" height="13" viewBox="0 0 14 13" fill="none" xmlns="http://www.w3.org/2000/svg">
<path fill-rule="evenodd" clip-rule="evenodd" d="M13.8337 2.3422C13.8337 1.16399 12.8786 0.208862 11.7004 0.208862H2.45597C1.27776 0.208862 0.322632 1.16399 0.322632 2.3422V8.03108C0.322632 9.20929 1.27776 10.1644 2.45597 10.1644H2.81152V12.2978L5.21152 10.1644H11.7004C12.8786 10.1644 13.8337 9.20929 13.8337 8.03108V2.3422ZM7.61152 5.18664C7.61152 5.48119 7.37274 5.71997 7.07819 5.71997C6.78364 5.71997 6.54485 5.48119 6.54485 5.18664C6.54485 4.89209 6.78364 4.65331 7.07819 4.65331C7.37274 4.65331 7.61152 4.89209 7.61152 5.18664ZM10.6337 5.71997C10.9283 5.71997 11.1671 5.48119 11.1671 5.18664C11.1671 4.89209 10.9283 4.65331 10.6337 4.65331C10.3392 4.65331 10.1004 4.89209 10.1004 5.18664C10.1004 5.48119 10.3392 5.71997 10.6337 5.71997ZM4.09863 5.18664C4.09863 5.48119 3.85985 5.71997 3.5653 5.71997C3.27075 5.71997 3.03197 5.48119 3.03197 5.18664C3.03197 4.89209 3.27075 4.65331 3.5653 4.65331C3.85985 4.65331 4.09863 4.89209 4.09863 5.18664Z" fill="white"/>
</svg>
