<svg width="16" height="16" viewBox="0 0 16 16" fill="none" xmlns="http://www.w3.org/2000/svg">
<path fill-rule="evenodd" clip-rule="evenodd" d="M5.888 0.159973H1.488C0.825257 0.159973 0.287998 0.697231 0.287998 1.35997V5.75997C0.287998 6.42271 0.825257 6.95997 1.488 6.95997H5.888C6.55074 6.95997 7.088 6.42271 7.088 5.75997V1.35997C7.088 0.697231 6.55074 0.159973 5.888 0.159973Z" fill="white"/>
<path fill-rule="evenodd" clip-rule="evenodd" d="M14.688 0.159973H10.288C9.62526 0.159973 9.088 0.697231 9.088 1.35997V5.75997C9.088 6.42271 9.62526 6.95997 10.288 6.95997H14.688C15.3507 6.95997 15.888 6.42271 15.888 5.75997V1.35997C15.888 0.697231 15.3507 0.159973 14.688 0.159973Z" fill="white"/>
<path fill-rule="evenodd" clip-rule="evenodd" d="M5.888 8.96002H1.488C0.825257 8.96002 0.287998 9.49728 0.287998 10.16V14.56C0.287998 15.2228 0.825257 15.76 1.488 15.76H5.888C6.55074 15.76 7.088 15.2228 7.088 14.56V10.16C7.088 9.49728 6.55074 8.96002 5.888 8.96002Z" fill="white"/>
<path fill-rule="evenodd" clip-rule="evenodd" d="M14.688 8.96002H10.288C9.62526 8.96002 9.088 9.49728 9.088 10.16V14.56C9.088 15.2228 9.62526 15.76 10.288 15.76H14.688C15.3507 15.76 15.888 15.2228 15.888 14.56V10.16C15.888 9.49728 15.3507 8.96002 14.688 8.96002Z" fill="white"/>
</svg>
