<svg width="16" height="16" viewBox="0 0 16 16" fill="none" xmlns="http://www.w3.org/2000/svg">
<path fill-rule="evenodd" clip-rule="evenodd" d="M5.88799 0.159973H1.48799C0.825253 0.159973 0.287994 0.697231 0.287994 1.35997V5.75997C0.287994 6.42271 0.825253 6.95997 1.48799 6.95997H5.88799C6.55074 6.95997 7.08799 6.42271 7.08799 5.75997V1.35997C7.08799 0.697231 6.55074 0.159973 5.88799 0.159973ZM5.88799 5.75997H1.48799V1.35997H5.88799V5.75997Z" fill="white"/>
<path fill-rule="evenodd" clip-rule="evenodd" d="M14.688 0.159973H10.288C9.62527 0.159973 9.08801 0.697231 9.08801 1.35997V5.75997C9.08801 6.42271 9.62527 6.95997 10.288 6.95997H14.688C15.3508 6.95997 15.888 6.42271 15.888 5.75997V1.35997C15.888 0.697231 15.3508 0.159973 14.688 0.159973ZM14.688 5.75997H10.288V1.35997H14.688V5.75997Z" fill="white"/>
<path fill-rule="evenodd" clip-rule="evenodd" d="M5.88799 8.96002H1.48799C0.825253 8.96002 0.287994 9.49728 0.287994 10.16V14.56C0.287994 15.2228 0.825253 15.76 1.48799 15.76H5.88799C6.55074 15.76 7.08799 15.2228 7.08799 14.56V10.16C7.08799 9.49728 6.55074 8.96002 5.88799 8.96002ZM5.88799 14.56H1.48799V10.16H5.88799V14.56Z" fill="white"/>
<path fill-rule="evenodd" clip-rule="evenodd" d="M14.688 8.96002H10.288C9.62527 8.96002 9.08801 9.49728 9.08801 10.16V14.56C9.08801 15.2228 9.62527 15.76 10.288 15.76H14.688C15.3508 15.76 15.888 15.2228 15.888 14.56V10.16C15.888 9.49728 15.3508 8.96002 14.688 8.96002ZM14.688 14.56H10.288V10.16H14.688V14.56Z" fill="white"/>
</svg>
