<svg width="16" height="16" viewBox="0 0 16 16" fill="none" xmlns="http://www.w3.org/2000/svg">
<path fill-rule="evenodd" clip-rule="evenodd" d="M8.07822 0.142212C3.75813 0.142212 0.256001 3.64434 0.256001 7.96443C0.256001 12.2845 3.75813 15.7867 8.07822 15.7867C12.3983 15.7867 15.9004 12.2845 15.9004 7.96443C15.9004 3.64434 12.3983 0.142212 8.07822 0.142212ZM8.07822 14.72C4.34723 14.72 1.32267 11.6954 1.32267 7.96443C1.32267 4.23344 4.34723 1.20888 8.07822 1.20888C11.8092 1.20888 14.8338 4.23344 14.8338 7.96443C14.8338 11.6954 11.8092 14.72 8.07822 14.72Z" fill="white"/>
<path fill-rule="evenodd" clip-rule="evenodd" d="M11.0436 4.05335L6.64533 6.48891H6.62045L6.57422 6.52091L6.52445 6.56357L6.48889 6.60624L6.44978 6.65957V6.68446L4.02845 11.1645C3.93104 11.3684 3.97277 11.6116 4.13259 11.7714C4.2924 11.9313 4.53561 11.973 4.73956 11.8756L9.13778 9.44002H9.16267L9.20889 9.40802L9.25867 9.36535L9.29422 9.32269L9.33333 9.26935V9.24446L11.7333 4.7538C11.8307 4.54985 11.789 4.30664 11.6292 4.14683C11.4694 3.98701 11.2262 3.94528 11.0222 4.04269L11.0436 4.05335ZM7.02933 7.85069L8.032 8.8818L5.824 10.1049L7.02933 7.85069ZM8.77511 8.11735L7.77245 7.08624L9.98045 5.86313L8.77511 8.11735Z" fill="white"/>
<path fill-rule="evenodd" clip-rule="evenodd" d="M13.4116 7.60889H12.3449C12.1485 7.60889 11.9893 7.76807 11.9893 7.96444C11.9893 8.16081 12.1485 8.32 12.3449 8.32H13.4116C13.6079 8.32 13.7671 8.16081 13.7671 7.96444C13.7671 7.76807 13.6079 7.60889 13.4116 7.60889Z" fill="white"/>
<path fill-rule="evenodd" clip-rule="evenodd" d="M4.16711 7.96444C4.16711 7.76807 4.00792 7.60889 3.81155 7.60889H2.74489C2.54852 7.60889 2.38933 7.76807 2.38933 7.96444C2.38933 8.16081 2.54852 8.32 2.74489 8.32H3.81155C4.00792 8.32 4.16711 8.16081 4.16711 7.96444Z" fill="white"/>
<path fill-rule="evenodd" clip-rule="evenodd" d="M8.07822 11.8755C7.88186 11.8755 7.72267 12.0347 7.72267 12.2311V13.2978C7.72267 13.4941 7.88186 13.6533 8.07822 13.6533C8.27459 13.6533 8.43378 13.4941 8.43378 13.2978V12.2311C8.43378 12.0347 8.27459 11.8755 8.07822 11.8755Z" fill="white"/>
<path fill-rule="evenodd" clip-rule="evenodd" d="M8.07822 4.05335C8.27459 4.05335 8.43378 3.89416 8.43378 3.6978V2.63113C8.43378 2.43476 8.27459 2.27557 8.07822 2.27557C7.88186 2.27557 7.72267 2.43476 7.72267 2.63113V3.6978C7.72267 3.89416 7.88186 4.05335 8.07822 4.05335Z" fill="white"/>
</svg>
