<svg width="16" height="16" viewBox="0 0 16 16" fill="none" xmlns="http://www.w3.org/2000/svg">
<path fill-rule="evenodd" clip-rule="evenodd" d="M0.255981 7.96443C0.255981 3.64434 3.75811 0.142212 8.0782 0.142212C12.3983 0.142212 15.9004 3.64434 15.9004 7.96443C15.9004 12.2845 12.3983 15.7867 8.0782 15.7867C3.75811 15.7867 0.255981 12.2845 0.255981 7.96443ZM6.64531 6.48888L11.0435 4.05332L11.0222 4.04266C11.2262 3.94525 11.4694 3.98698 11.6292 4.1468C11.789 4.30661 11.8307 4.54982 11.7333 4.75377L9.33331 9.24443V9.26932L9.2942 9.32266L9.25865 9.36532L9.20887 9.40799L9.16265 9.43999H9.13776L4.73954 11.8755C4.53559 11.973 4.29238 11.9312 4.13257 11.7714C3.97275 11.6116 3.93102 11.3684 4.02843 11.1644L6.44976 6.68443V6.65954L6.48887 6.60621L6.52443 6.56355L6.5742 6.52088L6.62043 6.48888H6.64531ZM8.03198 8.88177L7.02931 7.85066L5.82398 10.1049L8.03198 8.88177ZM7.77243 7.08621L8.77509 8.11732L9.98043 5.8631L7.77243 7.08621ZM13.4115 7.60888H12.3449C12.1485 7.60888 11.9893 7.76807 11.9893 7.96443C11.9893 8.1608 12.1485 8.31999 12.3449 8.31999H13.4115C13.6079 8.31999 13.7671 8.1608 13.7671 7.96443C13.7671 7.76807 13.6079 7.60888 13.4115 7.60888ZM3.81154 7.60888C4.00791 7.60888 4.16709 7.76807 4.16709 7.96443C4.16709 8.1608 4.00791 8.31999 3.81154 8.31999H2.74487C2.5485 8.31999 2.38931 8.1608 2.38931 7.96443C2.38931 7.76807 2.5485 7.60888 2.74487 7.60888H3.81154ZM8.0782 11.8755C7.88184 11.8755 7.72265 12.0347 7.72265 12.2311V13.2978C7.72265 13.4941 7.88184 13.6533 8.0782 13.6533C8.27457 13.6533 8.43376 13.4941 8.43376 13.2978V12.2311C8.43376 12.0347 8.27457 11.8755 8.0782 11.8755ZM8.43376 3.69777C8.43376 3.89414 8.27457 4.05332 8.0782 4.05332C7.88184 4.05332 7.72265 3.89414 7.72265 3.69777V2.6311C7.72265 2.43473 7.88184 2.27555 8.0782 2.27555C8.27457 2.27555 8.43376 2.43473 8.43376 2.6311V3.69777Z" fill="white"/>
</svg>
