<svg width="14" height="18" viewBox="0 0 14 18" fill="none" xmlns="http://www.w3.org/2000/svg">
<path d="M6.9 10C6.25833 10 5.73333 10.525 5.73333 11.1667C5.73333 11.526 5.9228 11.841 6.2 12.0599V13.0333C6.2 13.4169 6.5164 13.7333 6.9 13.7333C7.2836 13.7333 7.6 13.4169 7.6 13.0333V12.0589C7.8772 11.8396 8.06667 11.5255 8.06667 11.1667C8.06667 10.525 7.54167 10 6.9 10Z" fill="white"/>
<path d="M6.9 10.4667C7.2892 10.4667 7.6 10.7775 7.6 11.1667C7.6 11.4168 7.46653 11.6459 7.25 11.771C7.17766 11.8128 7.13317 11.89 7.13333 11.9735V13.0329C7.13333 13.1663 7.03347 13.2662 6.9 13.2662C6.76653 13.2662 6.66667 13.1663 6.66667 13.0329V11.9735C6.66667 11.8902 6.62219 11.8132 6.55 11.7715C6.33347 11.6473 6.2 11.4173 6.2 11.1667C6.2 10.7775 6.5108 10.4667 6.9 10.4667Z" fill="white"/>
<path fill-rule="evenodd" clip-rule="evenodd" d="M12.688 6.75295H3.488V4.79707C3.46582 3.13844 4.62278 1.71135 6.212 1.43707C7.13335 1.2944 8.06936 1.57219 8.77553 2.19788C9.48169 2.82356 9.88788 3.73501 9.888 4.69413V4.90001C9.888 5.24113 10.1566 5.51766 10.488 5.51766C10.8194 5.51766 11.088 5.24113 11.088 4.90001V4.81766C11.1151 2.57688 9.57212 0.640969 7.432 0.230601C6.15374 0.00485043 4.84383 0.371127 3.85219 1.23159C2.86055 2.09205 2.28819 3.35905 2.288 4.69413V6.75295H1.488C0.825257 6.75295 0.287998 7.30601 0.287998 7.98825V16.2235C0.287998 16.9058 0.825257 17.4588 1.488 17.4588H12.688C13.3507 17.4588 13.888 16.9058 13.888 16.2235V7.98825C13.888 7.30601 13.3507 6.75295 12.688 6.75295ZM12.688 16.2235H1.488V7.98825H12.688V16.2235Z" fill="white"/>
</svg>
