<svg width="14" height="18" viewBox="0 0 14 18" fill="none" xmlns="http://www.w3.org/2000/svg">
<path fill-rule="evenodd" clip-rule="evenodd" d="M12.688 6.75295H3.48796V4.79707C3.46578 3.13844 4.62275 1.71135 6.21196 1.43707C7.13332 1.2944 8.06932 1.57219 8.77549 2.19788C9.48166 2.82356 9.88785 3.73501 9.88796 4.69413V4.90001C9.88796 5.24113 10.1566 5.51766 10.488 5.51766C10.8193 5.51766 11.088 5.24113 11.088 4.90001V4.81766C11.115 2.57688 9.57208 0.640969 7.43196 0.230601C6.1537 0.00485043 4.8438 0.371127 3.85216 1.23159C2.86051 2.09205 2.28815 3.35905 2.28796 4.69413V6.75295H1.48796C0.825222 6.75295 0.287964 7.30601 0.287964 7.98825V16.2235C0.287964 16.9058 0.825222 17.4588 1.48796 17.4588H12.688C13.3507 17.4588 13.888 16.9058 13.888 16.2235V7.98825C13.888 7.30601 13.3507 6.75295 12.688 6.75295ZM6.89996 10C6.2583 10 5.7333 10.525 5.7333 11.1667C5.7333 11.526 5.92276 11.841 6.19996 12.0599V13.0333C6.19996 13.4169 6.51636 13.7333 6.89996 13.7333C7.28356 13.7333 7.59996 13.4169 7.59996 13.0333V12.0589C7.87716 11.8396 8.06663 11.5255 8.06663 11.1667C8.06663 10.525 7.54163 10 6.89996 10Z" fill="white"/>
</svg>
