<svg width="16" height="16" viewBox="0 0 16 16" fill="none" xmlns="http://www.w3.org/2000/svg">
<path fill-rule="evenodd" clip-rule="evenodd" d="M8.07822 5.12C6.50728 5.12 5.23378 6.3935 5.23378 7.96444C5.23378 9.53538 6.50728 10.8089 8.07822 10.8089C9.64917 10.8089 10.9227 9.53538 10.9227 7.96444C10.9227 6.3935 9.64917 5.12 8.07822 5.12ZM8.07822 9.74222C7.09638 9.74222 6.30045 8.94628 6.30045 7.96444C6.30045 6.9826 7.09638 6.18666 8.07822 6.18666C9.06006 6.18666 9.856 6.9826 9.856 7.96444C9.856 8.94628 9.06006 9.74222 8.07822 9.74222Z" fill="white"/>
<path fill-rule="evenodd" clip-rule="evenodd" d="M14.8338 5.8311H14.4782C14.3814 5.52544 14.2625 5.22718 14.1227 4.93866L14.368 4.69332C14.7839 4.27687 14.7839 3.60222 14.368 3.18577L12.8604 1.67821C12.444 1.26228 11.7693 1.26228 11.3529 1.67821L11.1004 1.91999C10.8119 1.78012 10.5137 1.66129 10.208 1.56443V1.20888C10.208 0.619775 9.73044 0.142212 9.14133 0.142212H7.008C6.4189 0.142212 5.94133 0.619775 5.94133 1.20888V1.56443C5.63567 1.66129 5.33741 1.78012 5.04889 1.91999L4.80356 1.67466C4.3871 1.25872 3.71245 1.25872 3.296 1.67466L1.78844 3.18221C1.37251 3.59866 1.37251 4.27332 1.78844 4.68977L2.03378 4.9351C1.8939 5.22362 1.77507 5.52188 1.67822 5.82755H1.32267C0.733563 5.82755 0.256001 6.30511 0.256001 6.89421V9.02754C0.256001 9.61665 0.733563 10.0942 1.32267 10.0942H1.67822C1.77507 10.3999 1.8939 10.6981 2.03378 10.9867L1.78844 11.232C1.37251 11.6484 1.37251 12.3231 1.78844 12.7395L3.296 14.2471C3.71245 14.663 4.3871 14.663 4.80356 14.2471L5.056 14.0089C5.34452 14.1487 5.64278 14.2676 5.94844 14.3644V14.72C5.94844 15.3091 6.42601 15.7867 7.01511 15.7867H9.14845C9.73755 15.7867 10.2151 15.3091 10.2151 14.72V14.3644C10.5208 14.2676 10.819 14.1487 11.1076 14.0089L11.3529 14.2542C11.7693 14.6701 12.444 14.6701 12.8604 14.2542L14.368 12.7467C14.7839 12.3302 14.7839 11.6556 14.368 11.2391L14.1227 10.9938C14.2625 10.7052 14.3814 10.407 14.4782 10.1013H14.8338C15.4229 10.1013 15.9004 9.62376 15.9004 9.03466V6.90132C15.9014 6.61781 15.7894 6.34558 15.5893 6.14478C15.3891 5.94397 15.1173 5.8311 14.8338 5.8311ZM14.8338 9.0311H13.664C13.5198 9.79526 13.2197 10.5215 12.7822 11.1644L13.6071 11.9893L12.0996 13.4969L11.2747 12.672C10.6318 13.1095 9.90552 13.4097 9.14133 13.5538V14.72H7.008V13.5502C6.24381 13.4061 5.51756 13.106 4.87467 12.6684L4.04978 13.4933L2.54222 11.9858L3.36711 11.1609C2.92968 10.5179 2.6295 9.79171 2.48533 9.02754H1.32267V6.89421H2.49244C2.63661 6.13005 2.93679 5.40382 3.37422 4.76088L2.54933 3.93599L4.05689 2.42843L4.88178 3.25332C5.52472 2.81589 6.25095 2.51571 7.01511 2.37155V1.20888H9.14845V2.37866C9.91261 2.52283 10.6388 2.823 11.2818 3.26043L12.1067 2.43555L13.6142 3.9431L12.7822 4.76443C13.2197 5.40738 13.5198 6.13361 13.664 6.89777H14.8338V9.0311Z" fill="white"/>
</svg>
