<svg width="16" height="16" viewBox="0 0 16 16" fill="none" xmlns="http://www.w3.org/2000/svg">
<path fill-rule="evenodd" clip-rule="evenodd" d="M14.4782 5.8311H14.8338C15.1173 5.8311 15.3891 5.94397 15.5893 6.14478C15.7894 6.34558 15.9014 6.61781 15.9004 6.90132V9.03466C15.9004 9.62376 15.4229 10.1013 14.8338 10.1013H14.4782C14.3814 10.407 14.2625 10.7052 14.1226 10.9938L14.368 11.2391C14.7839 11.6556 14.7839 12.3302 14.368 12.7467L12.8604 14.2542C12.444 14.6701 11.7693 14.6701 11.3529 14.2542L11.1075 14.0089C10.819 14.1487 10.5208 14.2676 10.2151 14.3644V14.72C10.2151 15.3091 9.73753 15.7867 9.14843 15.7867H7.01509C6.42599 15.7867 5.94843 15.3091 5.94843 14.72V14.3644C5.64276 14.2676 5.34451 14.1487 5.05598 14.0089L4.80354 14.2471C4.38709 14.663 3.71243 14.663 3.29598 14.2471L1.78843 12.7395C1.37249 12.3231 1.37249 11.6484 1.78843 11.232L2.03376 10.9867C1.89388 10.6981 1.77505 10.3999 1.6782 10.0942H1.32265C0.733544 10.0942 0.255981 9.61665 0.255981 9.02754V6.89421C0.255981 6.30511 0.733544 5.82755 1.32265 5.82755H1.6782C1.77505 5.52188 1.89388 5.22362 2.03376 4.9351L1.78843 4.68977C1.37249 4.27332 1.37249 3.59866 1.78843 3.18221L3.29598 1.67466C3.71243 1.25872 4.38709 1.25872 4.80354 1.67466L5.04887 1.91999C5.33739 1.78012 5.63565 1.66129 5.94131 1.56443V1.20888C5.94131 0.619775 6.41888 0.142212 7.00798 0.142212H9.14131C9.73042 0.142212 10.208 0.619775 10.208 1.20888V1.56443C10.5136 1.66129 10.8119 1.78012 11.1004 1.91999L11.3529 1.67821C11.7693 1.26228 12.444 1.26228 12.8604 1.67821L14.368 3.18577C14.7839 3.60222 14.7839 4.27687 14.368 4.69332L14.1226 4.93866C14.2625 5.22718 14.3814 5.52544 14.4782 5.8311ZM5.23376 7.96443C5.23376 6.39349 6.50726 5.11999 8.0782 5.11999C9.64915 5.11999 10.9226 6.39349 10.9226 7.96443C10.9226 9.53538 9.64915 10.8089 8.0782 10.8089C6.50726 10.8089 5.23376 9.53538 5.23376 7.96443Z" fill="white"/>
</svg>
