<svg width="16" height="17" viewBox="0 0 16 17" fill="none" xmlns="http://www.w3.org/2000/svg">
<path fill-rule="evenodd" clip-rule="evenodd" d="M14.72 2.10729H8.4761V0.936562C8.4761 0.613274 8.21402 0.351196 7.89073 0.351196C7.56744 0.351196 7.30537 0.613274 7.30537 0.936562V2.10729H1.45171C0.80513 2.10729 0.280975 2.63145 0.280975 3.27803V11.8634C0.280975 12.51 0.80513 13.0341 1.45171 13.0341H4.66341L2.90732 15.8478C2.75428 16.1202 2.84222 16.4648 3.10708 16.6306C3.37195 16.7964 3.72034 16.725 3.89854 16.4683L5.84976 13.3463C5.90665 13.2536 5.93639 13.1468 5.93561 13.038H10.2283C10.2275 13.1468 10.2573 13.2536 10.3141 13.3463L12.2654 16.4683C12.371 16.6564 12.5716 16.7711 12.7874 16.7668C13.0031 16.7626 13.199 16.6399 13.2971 16.4478C13.3952 16.2556 13.3796 16.025 13.2566 15.8478L11.5005 13.0341H14.7122C15.3588 13.0341 15.8829 12.51 15.8829 11.8634V3.27803C15.8829 2.63448 15.3635 2.11158 14.72 2.10729ZM14.72 11.8634H1.45171V3.27803H14.72V11.8634Z" fill="white"/>
<path fill-rule="evenodd" clip-rule="evenodd" d="M4.71414 9.60392C4.8393 9.69624 4.99606 9.73497 5.14981 9.71154C5.30357 9.68811 5.44168 9.60445 5.53366 9.47904L7.07122 7.37563L8.69463 9.48685C8.80504 9.63578 8.97948 9.72361 9.16488 9.72361C9.35027 9.72361 9.52471 9.63578 9.63512 9.48685L11.5863 6.75514C11.7194 6.58557 11.7484 6.35662 11.662 6.15918C11.5756 5.96174 11.3877 5.82774 11.1729 5.81038C10.9581 5.79302 10.7511 5.89511 10.6341 6.07611L9.14341 8.16392L7.5278 6.0605C7.41686 5.91196 7.24097 5.82619 7.05561 5.83026C6.87205 5.8324 6.70012 5.92053 6.59122 6.06831L4.59317 8.80002C4.4105 9.05685 4.46398 9.41222 4.71414 9.60392Z" fill="white"/>
</svg>
