<svg width="16" height="17" viewBox="0 0 16 17" fill="none" xmlns="http://www.w3.org/2000/svg">
<path fill-rule="evenodd" clip-rule="evenodd" d="M8.47613 2.10729H14.72C15.3636 2.11158 15.883 2.63448 15.883 3.27803V11.8634C15.883 12.51 15.3588 13.0341 14.7122 13.0341H11.5005L13.2566 15.8478C13.3797 16.025 13.3952 16.2556 13.2971 16.4478C13.199 16.6399 13.0031 16.7626 12.7874 16.7668C12.5717 16.7711 12.3711 16.6564 12.2654 16.4683L10.3142 13.3463C10.2573 13.2536 10.2275 13.1468 10.2283 13.038H5.93564C5.93642 13.1468 5.90668 13.2536 5.84979 13.3463L3.89857 16.4683C3.72037 16.725 3.37198 16.7964 3.10711 16.6306C2.84225 16.4648 2.75431 16.1202 2.90735 15.8478L4.66344 13.0341H1.45174C0.80516 13.0341 0.281006 12.51 0.281006 11.8634V3.27803C0.281006 2.63145 0.80516 2.10729 1.45174 2.10729H7.3054V0.936562C7.3054 0.613274 7.56747 0.351196 7.89076 0.351196C8.21405 0.351196 8.47613 0.613274 8.47613 0.936562V2.10729ZM5.14985 9.7115C4.99609 9.73493 4.83934 9.69621 4.71418 9.60388C4.46401 9.41218 4.41053 9.05682 4.5932 8.79998L6.59125 6.06827C6.70016 5.92049 6.87208 5.83236 7.05564 5.83022C7.241 5.82615 7.41689 5.91192 7.52784 6.06046L9.14345 8.16388L10.6342 6.07607C10.7512 5.89507 10.9581 5.79298 11.173 5.81034C11.3878 5.8277 11.5757 5.9617 11.6621 6.15914C11.7485 6.35658 11.7194 6.58553 11.5864 6.7551L9.63515 9.48681C9.52474 9.63574 9.35031 9.72357 9.16491 9.72357C8.97951 9.72357 8.80507 9.63574 8.69466 9.48681L7.07125 7.37559L5.53369 9.479C5.44171 9.60441 5.3036 9.68807 5.14985 9.7115Z" fill="white"/>
</svg>
