<svg width="16" height="16" viewBox="0 0 16 16" fill="none" xmlns="http://www.w3.org/2000/svg">
<path fill-rule="evenodd" clip-rule="evenodd" d="M0.720001 8.15002C0.720001 4.00789 4.07787 0.650024 8.22 0.650024C12.3621 0.650024 15.72 4.00789 15.72 8.15002C15.72 12.2922 12.3621 15.65 8.22 15.65C4.07787 15.65 0.720001 12.2922 0.720001 8.15002ZM8.39046 9.34321C8.20369 9.34397 8.01709 9.35421 7.83136 9.37389C7.00171 9.07302 6.4671 8.26418 6.51546 7.38298C6.51546 6.25457 7.27909 5.33752 8.22 5.33752C9.16091 5.33752 9.92455 6.25457 9.92455 7.38298C9.96655 8.23938 9.46374 9.02913 8.67 9.35343C8.57796 9.35002 8.48591 9.34321 8.39046 9.34321ZM4.02 13.0932C4.76096 11.6466 6.16029 10.6518 7.77 10.4273C8.10187 10.4921 8.44386 10.484 8.77227 10.4034C10.3631 10.6183 11.7677 11.5505 12.5836 12.933C10.1795 15.152 6.49515 15.2209 4.00977 13.0932H4.02Z" fill="white"/>
</svg>
