<svg width="183" height="108" viewBox="0 0 183 108" fill="none" xmlns="http://www.w3.org/2000/svg">
<path d="M74.2205 47.1049H74.8709C75.199 47.102 75.4583 47.017 75.6487 46.85C75.8421 46.683 75.9388 46.4413 75.9388 46.1249C75.9388 45.8203 75.8582 45.5844 75.6971 45.4174C75.5389 45.2475 75.2957 45.1625 74.9676 45.1625C74.6805 45.1625 74.4446 45.246 74.2601 45.413C74.0755 45.5771 73.9832 45.7924 73.9832 46.059H72.9153C72.9153 45.7309 73.0018 45.4321 73.1746 45.1625C73.3504 44.893 73.5936 44.6835 73.9041 44.5341C74.2176 44.3818 74.5677 44.3056 74.9544 44.3056C75.5931 44.3056 76.094 44.4667 76.4573 44.789C76.8235 45.1083 77.0066 45.5536 77.0066 46.1249C77.0066 46.412 76.9144 46.683 76.7298 46.9379C76.5481 47.1899 76.3123 47.3803 76.0223 47.5092C76.3738 47.6293 76.6404 47.8183 76.8221 48.0761C77.0066 48.3339 77.0989 48.6415 77.0989 48.999C77.0989 49.5732 76.9012 50.0302 76.5057 50.3701C76.1131 50.7099 75.596 50.8798 74.9544 50.8798C74.3392 50.8798 73.8353 50.7158 73.4427 50.3876C73.0501 50.0595 72.8538 49.623 72.8538 49.0781H73.9217C73.9217 49.3593 74.0154 49.5878 74.2029 49.7636C74.3934 49.9394 74.6482 50.0273 74.9676 50.0273C75.2986 50.0273 75.5594 49.9394 75.7498 49.7636C75.9402 49.5878 76.0354 49.3329 76.0354 48.999C76.0354 48.662 75.9358 48.4028 75.7366 48.2211C75.5374 48.0395 75.2415 47.9487 74.8489 47.9487H74.2205V47.1049ZM82.0231 44.3627V45.246H81.8913C81.2937 45.2548 80.8161 45.4189 80.4587 45.7382C80.1013 46.0576 79.8889 46.5102 79.8215 47.0961C80.1643 46.7358 80.6022 46.5556 81.1354 46.5556C81.7009 46.5556 82.1462 46.7548 82.4714 47.1533C82.7995 47.5517 82.9636 48.0659 82.9636 48.6957C82.9636 49.3461 82.7717 49.8735 82.3879 50.2778C82.007 50.6791 81.5061 50.8798 80.885 50.8798C80.2463 50.8798 79.7277 50.644 79.3293 50.1723C78.9338 49.7006 78.736 49.0825 78.736 48.3178V47.9531C78.736 46.831 79.0085 45.9521 79.5534 45.3163C80.1013 44.6806 80.8879 44.3627 81.9133 44.3627H82.0231ZM80.8762 47.4169C80.6418 47.4169 80.4265 47.4828 80.2302 47.6147C80.0368 47.7465 79.8947 47.9223 79.8039 48.142V48.4672C79.8039 48.9418 79.9035 49.3198 80.1027 49.601C80.302 49.8793 80.5598 50.0185 80.8762 50.0185C81.1926 50.0185 81.4431 49.8998 81.6276 49.6625C81.8122 49.4252 81.9045 49.1132 81.9045 48.7265C81.9045 48.3398 81.8107 48.0248 81.6232 47.7817C81.4357 47.5385 81.1867 47.4169 80.8762 47.4169ZM87.4439 48.1157C87.0865 48.4936 86.669 48.6826 86.1915 48.6826C85.629 48.6826 85.1808 48.4863 84.8468 48.0937C84.5128 47.6982 84.3458 47.1796 84.3458 46.538C84.3458 46.1161 84.4308 45.7338 84.6007 45.3911C84.7706 45.0483 85.0123 44.7817 85.3258 44.5912C85.6393 44.4008 86.0025 44.3056 86.4156 44.3056C87.0602 44.3056 87.5714 44.5458 87.9493 45.0263C88.3272 45.5068 88.5162 46.1498 88.5162 46.9555V47.2543C88.5162 48.4086 88.2555 49.289 87.734 49.8954C87.2125 50.5019 86.4347 50.8095 85.4005 50.8183H85.273V49.935H85.4269C86.0567 49.9262 86.5401 49.7753 86.8771 49.4824C87.214 49.1865 87.4029 48.7309 87.4439 48.1157ZM86.4156 47.8476C86.6295 47.8476 86.8302 47.7861 87.0177 47.663C87.2052 47.54 87.3502 47.3701 87.4527 47.1533V46.7358C87.4527 46.2641 87.3561 45.8847 87.1627 45.5976C86.9693 45.3105 86.7188 45.1669 86.4112 45.1669C86.1036 45.1669 85.8575 45.2944 85.6729 45.5493C85.4913 45.8012 85.4005 46.1205 85.4005 46.5073C85.4005 46.9086 85.4928 47.2324 85.6773 47.4785C85.8619 47.7245 86.108 47.8476 86.4156 47.8476ZM92.5044 46.705L93.8491 44.3935H95.1323L93.1987 47.5663L95.1763 50.7919H93.8799L92.5044 48.4453L91.1245 50.7919H89.8325L91.8145 47.5663L89.8765 44.3935H91.1597L92.5044 46.705ZM100.729 50.7919H96.4267V50.058L98.558 47.7333C98.8656 47.3906 99.0839 47.1049 99.2128 46.8764C99.3446 46.645 99.4105 46.4135 99.4105 46.1821C99.4105 45.8774 99.3241 45.6313 99.1513 45.4438C98.9813 45.2563 98.7514 45.1625 98.4613 45.1625C98.1156 45.1625 97.8476 45.268 97.6571 45.4789C97.4667 45.6899 97.3715 45.9785 97.3715 46.3447H96.3036C96.3036 45.955 96.3915 45.6049 96.5673 45.2944C96.746 44.9809 96.9994 44.7377 97.3275 44.5649C97.6586 44.392 98.0395 44.3056 98.4701 44.3056C99.0912 44.3056 99.5805 44.4623 99.9379 44.7758C100.298 45.0864 100.478 45.517 100.478 46.0678C100.478 46.3871 100.388 46.7226 100.206 47.0742C100.027 47.4228 99.7328 47.8198 99.3227 48.2651L97.7582 49.9394H100.729V50.7919ZM105.033 50.7919H103.97V45.6547L102.401 46.1909V45.29L104.897 44.3715H105.033V50.7919ZM111.469 48.5112H112.265V49.3681H111.469V50.7919H110.402V49.3681H107.637L107.607 48.7177L110.366 44.3935H111.469V48.5112ZM108.727 48.5112H110.402V45.8393L110.322 45.9799L108.727 48.5112ZM73.7854 61.7919H72.722V56.6547L71.1531 57.1909V56.29L73.6492 55.3715H73.7854V61.7919ZM78.2219 55.3935L80.0676 60.2978L81.9089 55.3935H83.3459V61.7919H82.2385V59.6826L82.3483 56.8613L80.4587 61.7919H79.6633L77.778 56.8657L77.8879 59.6826V61.7919H76.7805V55.3935H78.2219ZM85.2643 61.7919V55.3935H87.4571C88.1808 55.3935 88.7315 55.5385 89.1095 55.8286C89.4874 56.1186 89.6764 56.5507 89.6764 57.1249C89.6764 57.4179 89.5973 57.6816 89.4391 57.916C89.2809 58.1503 89.0494 58.332 88.7447 58.4609C89.0904 58.5546 89.357 58.7319 89.5445 58.9926C89.735 59.2504 89.8302 59.561 89.8302 59.9243C89.8302 60.5248 89.6368 60.9863 89.2501 61.3085C88.8663 61.6308 88.3155 61.7919 87.5978 61.7919H85.2643ZM86.3761 58.9047V60.9042H87.6109C87.9596 60.9042 88.232 60.8178 88.4283 60.645C88.6246 60.4721 88.7228 60.2319 88.7228 59.9243C88.7228 59.2592 88.3829 58.9194 87.7032 58.9047H86.3761ZM86.3761 58.0873H87.4659C87.8116 58.0873 88.0812 58.0097 88.2745 57.8544C88.4708 57.6962 88.5689 57.4736 88.5689 57.1865C88.5689 56.8701 88.4781 56.6415 88.2965 56.5009C88.1178 56.3603 87.838 56.29 87.4571 56.29H86.3761V58.0873ZM95.8246 55.3935L97.6703 60.2978L99.5116 55.3935H100.949V61.7919H99.8412V59.6826L99.9511 56.8613L98.0614 61.7919H97.266L95.3808 56.8657L95.4906 59.6826V61.7919H94.3832V55.3935H95.8246ZM106.528 60.3022H104.049L103.531 61.7919H102.375L104.792 55.3935H105.789L108.211 61.7919H107.051L106.528 60.3022ZM104.361 59.4057H106.216L105.288 56.7514L104.361 59.4057ZM111.742 57.705L113.087 55.3935H114.37L112.436 58.5663L114.414 61.7919H113.117L111.742 59.4453L110.362 61.7919H109.07L111.052 58.5663L109.114 55.3935H110.397L111.742 57.705Z" fill="#9B9B9B"/>
<mask id="mask0" mask-type="alpha" maskUnits="userSpaceOnUse" x="0" y="0" width="183" height="108">
<path fill-rule="evenodd" clip-rule="evenodd" d="M0 5.24161C0 2.48018 2.23858 0.241608 5 0.241608H178C180.761 0.241608 183 2.48018 183 5.24161V102.664C183 105.426 180.761 107.664 178 107.664H5C2.23858 107.664 0 105.426 0 102.664V5.24161Z" fill="white"/>
</mask>
<g mask="url(#mask0)">
<path d="M5 106.914C4.16775 106.914 3.39349 106.676 2.73915 106.264L1.93991 107.533C2.82656 108.092 3.87672 108.414 5 108.414V106.914ZM1.40047 104.925C0.988459 104.271 0.75 103.497 0.75 102.664H-0.75C-0.75 103.788 -0.427149 104.838 0.131133 105.725L1.40047 104.925ZM0.75 102.664V97.6939H-0.75V102.664H0.75ZM0.75 93.7174V83.7763H-0.75V93.7174H0.75ZM0.75 79.7999V69.8588H-0.75V79.7999H0.75ZM0.75 65.8823V55.9412H-0.75V65.8823H0.75ZM0.75 51.9648V42.0237H-0.75V51.9648H0.75ZM0.75 38.0472V28.1061H-0.75V38.0472H0.75ZM0.75 24.1297V14.1886H-0.75V24.1297H0.75ZM0.75 10.2122V5.24161H-0.75V10.2122H0.75ZM0.75 5.24161C0.75 4.40936 0.988459 3.6351 1.40047 2.98075L0.131133 2.18151C-0.427149 3.06816 -0.75 4.11833 -0.75 5.24161H0.75ZM2.73915 1.64208C3.39349 1.23007 4.16775 0.99161 5 0.99161V-0.508391C3.87672 -0.508391 2.82656 -0.185541 1.93991 0.37274L2.73915 1.64208ZM5 0.99161H10.1488V-0.508391H5V0.99161ZM14.2679 0.99161H24.5655V-0.508391H14.2679V0.99161ZM28.6845 0.99161H38.9821V-0.508391H28.6845V0.99161ZM43.1012 0.99161H53.3988V-0.508391H43.1012V0.99161ZM57.5179 0.99161H67.8155V-0.508391H57.5179V0.99161ZM71.9345 0.99161H82.2321V-0.508391H71.9345V0.99161ZM86.3512 0.99161H96.6488V-0.508391H86.3512V0.99161ZM100.768 0.99161H111.065V-0.508391H100.768V0.99161ZM115.185 0.99161H125.482V-0.508391H115.185V0.99161ZM129.601 0.99161H139.899V-0.508391H129.601V0.99161ZM144.018 0.99161H154.316V-0.508391H144.018V0.99161ZM158.435 0.99161H168.732V-0.508391H158.435V0.99161ZM172.851 0.99161H178V-0.508391H172.851V0.99161ZM178 0.99161C178.832 0.99161 179.607 1.23007 180.261 1.64208L181.06 0.372741C180.173 -0.18554 179.123 -0.508391 178 -0.508391V0.99161ZM181.6 2.98076C182.012 3.6351 182.25 4.40936 182.25 5.24161H183.75C183.75 4.11833 183.427 3.06817 182.869 2.18152L181.6 2.98076ZM182.25 5.24161V10.2122H183.75V5.24161H182.25ZM182.25 14.1886V24.1297H183.75V14.1886H182.25ZM182.25 28.1061V38.0473H183.75V28.1061H182.25ZM182.25 42.0237V51.9648H183.75V42.0237H182.25ZM182.25 55.9412V65.8823H183.75V55.9412H182.25ZM182.25 69.8588V79.7999H183.75V69.8588H182.25ZM182.25 83.7763V93.7174H183.75V83.7763H182.25ZM182.25 97.6939V102.664H183.75V97.6939H182.25ZM182.25 102.664C182.25 103.497 182.012 104.271 181.6 104.925L182.869 105.725C183.427 104.838 183.75 103.788 183.75 102.664H182.25ZM180.261 106.264C179.607 106.676 178.832 106.914 178 106.914V108.414C179.123 108.414 180.173 108.092 181.06 107.533L180.261 106.264ZM178 106.914H172.851V108.414H178V106.914ZM168.732 106.914H158.435V108.414H168.732V106.914ZM154.315 106.914H144.018V108.414H154.315V106.914ZM139.899 106.914H129.601V108.414H139.899V106.914ZM125.482 106.914H115.185V108.414H125.482V106.914ZM111.065 106.914H100.768V108.414H111.065V106.914ZM96.6488 106.914H86.3512V108.414H96.6488V106.914ZM82.2321 106.914H71.9345V108.414H82.2321V106.914ZM67.8155 106.914H57.5178V108.414H67.8155V106.914ZM53.3988 106.914H43.1012V108.414H53.3988V106.914ZM38.9821 106.914H28.6845V108.414H38.9821V106.914ZM24.5654 106.914H14.2678V108.414H24.5654V106.914ZM10.1488 106.914H5V108.414H10.1488V106.914ZM5 106.164C4.31327 106.164 3.67696 105.968 3.13877 105.629L1.54029 108.168C2.54309 108.799 3.73121 109.164 5 109.164V106.164ZM2.03514 104.526C1.69626 103.987 1.5 103.351 1.5 102.664H-1.5C-1.5 103.933 -1.13495 105.121 -0.503535 106.124L2.03514 104.526ZM1.5 102.664V97.6939H-1.5V102.664H1.5ZM1.5 93.7174V83.7763H-1.5V93.7174H1.5ZM1.5 79.7999V69.8588H-1.5V79.7999H1.5ZM1.5 65.8823V55.9412H-1.5V65.8823H1.5ZM1.5 51.9648V42.0237H-1.5V51.9648H1.5ZM1.5 38.0472V28.1061H-1.5V38.0472H1.5ZM1.5 24.1297V14.1886H-1.5V24.1297H1.5ZM1.5 10.2122V5.24161H-1.5V10.2122H1.5ZM1.5 5.24161C1.5 4.55487 1.69626 3.91857 2.03514 3.38037L-0.503535 1.78189C-1.13495 2.7847 -1.5 3.97281 -1.5 5.24161H1.5ZM3.13877 2.27674C3.67696 1.93787 4.31327 1.74161 5 1.74161V-1.25839C3.73121 -1.25839 2.54309 -0.893345 1.54029 -0.261928L3.13877 2.27674ZM5 1.74161H10.1488V-1.25839H5V1.74161ZM14.2679 1.74161H24.5655V-1.25839H14.2679V1.74161ZM28.6845 1.74161H38.9821V-1.25839H28.6845V1.74161ZM43.1012 1.74161H53.3988V-1.25839H43.1012V1.74161ZM57.5179 1.74161H67.8155V-1.25839H57.5179V1.74161ZM71.9345 1.74161H82.2321V-1.25839H71.9345V1.74161ZM86.3512 1.74161H96.6488V-1.25839H86.3512V1.74161ZM100.768 1.74161H111.065V-1.25839H100.768V1.74161ZM115.185 1.74161H125.482V-1.25839H115.185V1.74161ZM129.601 1.74161H139.899V-1.25839H129.601V1.74161ZM144.018 1.74161H154.316V-1.25839H144.018V1.74161ZM158.435 1.74161H168.732V-1.25839H158.435V1.74161ZM172.851 1.74161H178V-1.25839H172.851V1.74161ZM178 1.74161C178.687 1.74161 179.323 1.93787 179.861 2.27674L181.46 -0.261927C180.457 -0.893345 179.269 -1.25839 178 -1.25839V1.74161ZM180.965 3.38038C181.304 3.91857 181.5 4.55488 181.5 5.24161H184.5C184.5 3.97281 184.135 2.7847 183.504 1.7819L180.965 3.38038ZM181.5 5.24161V10.2122H184.5V5.24161H181.5ZM181.5 14.1886V24.1297H184.5V14.1886H181.5ZM181.5 28.1061V38.0473H184.5V28.1061H181.5ZM181.5 42.0237V51.9648H184.5V42.0237H181.5ZM181.5 55.9412V65.8823H184.5V55.9412H181.5ZM181.5 69.8588V79.7999H184.5V69.8588H181.5ZM181.5 83.7763V93.7174H184.5V83.7763H181.5ZM181.5 97.6939V102.664H184.5V97.6939H181.5ZM181.5 102.664C181.5 103.351 181.304 103.987 180.965 104.526L183.504 106.124C184.135 105.121 184.5 103.933 184.5 102.664H181.5ZM179.861 105.629C179.323 105.968 178.687 106.164 178 106.164V109.164C179.269 109.164 180.457 108.799 181.46 108.168L179.861 105.629ZM178 106.164H172.851V109.164H178V106.164ZM168.732 106.164H158.435V109.164H168.732V106.164ZM154.315 106.164H144.018V109.164H154.315V106.164ZM139.899 106.164H129.601V109.164H139.899V106.164ZM125.482 106.164H115.185V109.164H125.482V106.164ZM111.065 106.164H100.768V109.164H111.065V106.164ZM96.6488 106.164H86.3512V109.164H96.6488V106.164ZM82.2321 106.164H71.9345V109.164H82.2321V106.164ZM67.8155 106.164H57.5178V109.164H67.8155V106.164ZM53.3988 106.164H43.1012V109.164H53.3988V106.164ZM38.9821 106.164H28.6845V109.164H38.9821V106.164ZM24.5654 106.164H14.2678V109.164H24.5654V106.164ZM10.1488 106.164H5V109.164H10.1488V106.164Z" fill="#979797"/>
</g>
</svg>
