<svg width="185" height="106" viewBox="0 0 185 106" fill="none" xmlns="http://www.w3.org/2000/svg">
<g clip-path="url(#clip0)">
<rect width="1440" height="786" transform="translate(-870 -540)" fill="white"/>
<path fill-rule="evenodd" clip-rule="evenodd" d="M-620 -482H570V245H-620V-482Z" fill="#EBEFF2"/>
<rect x="-870" y="-540" width="1440" height="786" fill="black" fill-opacity="0.61"/>
<g filter="url(#filter0_d)">
<rect x="-30" y="-540" width="600" height="786" fill="white"/>
</g>
<path d="M75.8036 44.6H73.2026L73.1396 45.977C73.2416 45.947 73.3616 45.926 73.4996 45.914C73.6436 45.902 73.7726 45.896 73.8866 45.896C74.1986 45.896 74.4866 45.941 74.7506 46.031C75.0206 46.121 75.2546 46.253 75.4526 46.427C75.6506 46.595 75.8036 46.805 75.9116 47.057C76.0256 47.303 76.0826 47.588 76.0826 47.912C76.0826 48.266 76.0196 48.584 75.8936 48.866C75.7736 49.142 75.6086 49.376 75.3986 49.568C75.1886 49.76 74.9426 49.907 74.6606 50.009C74.3786 50.111 74.0786 50.162 73.7606 50.162C73.2266 50.162 72.7766 50.039 72.4106 49.793C72.0446 49.541 71.7776 49.199 71.6096 48.767L72.5906 48.407C72.6806 48.659 72.8306 48.863 73.0406 49.019C73.2506 49.169 73.4996 49.244 73.7876 49.244C73.9496 49.244 74.1026 49.217 74.2466 49.163C74.3906 49.109 74.5166 49.031 74.6246 48.929C74.7326 48.827 74.8166 48.701 74.8766 48.551C74.9426 48.395 74.9756 48.221 74.9756 48.029C74.9756 47.783 74.9336 47.579 74.8496 47.417C74.7656 47.255 74.6546 47.126 74.5166 47.03C74.3846 46.928 74.2346 46.859 74.0666 46.823C73.8986 46.781 73.7276 46.76 73.5536 46.76C73.4336 46.76 73.3046 46.769 73.1666 46.787C73.0346 46.805 72.9026 46.832 72.7706 46.868C72.6446 46.898 72.5186 46.934 72.3926 46.976C72.2726 47.018 72.1646 47.063 72.0686 47.111L72.1766 43.628H75.8036V44.6ZM79.8628 44.942L78.6028 45.977L77.9728 45.23L79.9618 43.628H80.9428V50H79.8628V44.942ZM87.4139 43.628L85.7849 45.986L85.7939 45.995C85.8779 45.959 85.9829 45.932 86.1089 45.914C86.2409 45.896 86.3609 45.887 86.4689 45.887C86.7509 45.887 87.0149 45.941 87.2609 46.049C87.5069 46.151 87.7229 46.295 87.9089 46.481C88.0949 46.661 88.2389 46.877 88.3409 47.129C88.4489 47.375 88.5029 47.642 88.5029 47.93C88.5029 48.266 88.4429 48.572 88.3229 48.848C88.2029 49.124 88.0379 49.361 87.8279 49.559C87.6239 49.751 87.3779 49.898 87.0899 50C86.8079 50.108 86.5049 50.162 86.1809 50.162C85.8449 50.162 85.5359 50.108 85.2539 50C84.9719 49.886 84.7259 49.73 84.5159 49.532C84.3059 49.334 84.1409 49.103 84.0209 48.839C83.9069 48.569 83.8499 48.281 83.8499 47.975C83.8499 47.795 83.8649 47.627 83.8949 47.471C83.9249 47.309 83.9669 47.156 84.0209 47.012C84.0809 46.862 84.1499 46.712 84.2279 46.562C84.3119 46.412 84.4049 46.256 84.5069 46.094L86.0999 43.628H87.4139ZM84.9479 48.002C84.9479 48.17 84.9749 48.329 85.0289 48.479C85.0889 48.629 85.1729 48.761 85.2809 48.875C85.3889 48.989 85.5179 49.079 85.6679 49.145C85.8179 49.211 85.9859 49.244 86.1719 49.244C86.5379 49.244 86.8319 49.13 87.0539 48.902C87.2819 48.668 87.3959 48.362 87.3959 47.984C87.3959 47.804 87.3659 47.639 87.3059 47.489C87.2519 47.333 87.1709 47.201 87.0629 47.093C86.9549 46.985 86.8259 46.901 86.6759 46.841C86.5319 46.775 86.3699 46.742 86.1899 46.742C86.0099 46.742 85.8419 46.772 85.6859 46.832C85.5359 46.892 85.4039 46.979 85.2899 47.093C85.1819 47.201 85.0979 47.333 85.0379 47.489C84.9779 47.645 84.9479 47.816 84.9479 48.002ZM91.7791 46.598L89.7991 43.628H91.1671L92.4811 45.806L93.7771 43.628H95.0821L93.1381 46.625L95.4241 50H93.9931L92.4361 47.498L90.9421 50H89.5741L91.7791 46.598ZM96.6829 49.01L99.1399 46.598C99.3379 46.406 99.4939 46.214 99.6079 46.022C99.7279 45.824 99.7879 45.599 99.7879 45.347C99.7879 45.047 99.6889 44.81 99.4909 44.636C99.2989 44.456 99.0589 44.366 98.7709 44.366C98.4649 44.366 98.2189 44.471 98.0329 44.681C97.8469 44.885 97.7329 45.143 97.6909 45.455L96.6379 45.293C96.6679 45.029 96.7429 44.786 96.8629 44.564C96.9829 44.342 97.1359 44.15 97.3219 43.988C97.5079 43.826 97.7239 43.7 97.9699 43.61C98.2219 43.514 98.4949 43.466 98.7889 43.466C99.0649 43.466 99.3289 43.505 99.5809 43.583C99.8389 43.661 100.067 43.781 100.265 43.943C100.463 44.099 100.619 44.294 100.733 44.528C100.853 44.756 100.913 45.023 100.913 45.329C100.913 45.533 100.886 45.725 100.832 45.905C100.778 46.079 100.703 46.244 100.607 46.4C100.517 46.556 100.409 46.706 100.283 46.85C100.163 46.988 100.031 47.123 99.8869 47.255L98.0509 49.01H100.922V50H96.6829V49.01ZM103.667 50L105.305 47.633L105.296 47.624C105.206 47.666 105.095 47.696 104.963 47.714C104.837 47.732 104.72 47.741 104.612 47.741C104.33 47.741 104.066 47.69 103.82 47.588C103.574 47.48 103.358 47.336 103.172 47.156C102.986 46.97 102.839 46.754 102.731 46.508C102.629 46.256 102.578 45.986 102.578 45.698C102.578 45.362 102.638 45.056 102.758 44.78C102.878 44.504 103.04 44.27 103.244 44.078C103.454 43.88 103.7 43.73 103.982 43.628C104.27 43.52 104.576 43.466 104.9 43.466C105.23 43.466 105.536 43.523 105.818 43.637C106.106 43.745 106.355 43.898 106.565 44.096C106.775 44.294 106.937 44.528 107.051 44.798C107.171 45.062 107.231 45.347 107.231 45.653C107.231 45.833 107.216 46.004 107.186 46.166C107.156 46.322 107.111 46.475 107.051 46.625C106.997 46.769 106.928 46.916 106.844 47.066C106.766 47.216 106.676 47.372 106.574 47.534L104.981 50H103.667ZM106.133 45.626C106.133 45.458 106.103 45.299 106.043 45.149C105.989 44.999 105.908 44.867 105.8 44.753C105.692 44.633 105.563 44.54 105.413 44.474C105.263 44.402 105.095 44.366 104.909 44.366C104.543 44.366 104.246 44.486 104.018 44.726C103.796 44.96 103.685 45.266 103.685 45.644C103.685 45.824 103.712 45.992 103.766 46.148C103.826 46.298 103.91 46.427 104.018 46.535C104.126 46.643 104.252 46.73 104.396 46.796C104.546 46.856 104.711 46.886 104.891 46.886C105.071 46.886 105.236 46.856 105.386 46.796C105.542 46.736 105.674 46.652 105.782 46.544C105.896 46.43 105.983 46.295 106.043 46.139C106.103 45.983 106.133 45.812 106.133 45.626ZM112.793 44.6H110.192L110.129 45.977C110.231 45.947 110.351 45.926 110.489 45.914C110.633 45.902 110.762 45.896 110.876 45.896C111.188 45.896 111.476 45.941 111.74 46.031C112.01 46.121 112.244 46.253 112.442 46.427C112.64 46.595 112.793 46.805 112.901 47.057C113.015 47.303 113.072 47.588 113.072 47.912C113.072 48.266 113.009 48.584 112.883 48.866C112.763 49.142 112.598 49.376 112.388 49.568C112.178 49.76 111.932 49.907 111.65 50.009C111.368 50.111 111.068 50.162 110.75 50.162C110.216 50.162 109.766 50.039 109.4 49.793C109.034 49.541 108.767 49.199 108.599 48.767L109.58 48.407C109.67 48.659 109.82 48.863 110.03 49.019C110.24 49.169 110.489 49.244 110.777 49.244C110.939 49.244 111.092 49.217 111.236 49.163C111.38 49.109 111.506 49.031 111.614 48.929C111.722 48.827 111.806 48.701 111.866 48.551C111.932 48.395 111.965 48.221 111.965 48.029C111.965 47.783 111.923 47.579 111.839 47.417C111.755 47.255 111.644 47.126 111.506 47.03C111.374 46.928 111.224 46.859 111.056 46.823C110.888 46.781 110.717 46.76 110.543 46.76C110.423 46.76 110.294 46.769 110.156 46.787C110.024 46.805 109.892 46.832 109.76 46.868C109.634 46.898 109.508 46.934 109.382 46.976C109.262 47.018 109.154 47.063 109.058 47.111L109.166 43.628H112.793V44.6ZM72.0074 56.942L70.7474 57.977L70.1174 57.23L72.1064 55.628H73.0874V62H72.0074V56.942ZM76.2916 55.628H78.0646L79.7206 60.155H79.7476L81.3856 55.628H83.1676V62H82.0426V56.879H82.0246L80.0896 62H79.2976L77.3896 56.879H77.3716V62H76.2916V55.628ZM85.1708 55.628H87.6548C87.8948 55.628 88.1318 55.658 88.3658 55.718C88.5998 55.772 88.8068 55.865 88.9868 55.997C89.1728 56.123 89.3228 56.288 89.4368 56.492C89.5508 56.696 89.6078 56.942 89.6078 57.23C89.6078 57.59 89.5058 57.887 89.3018 58.121C89.0978 58.355 88.8308 58.523 88.5008 58.625V58.643C88.9028 58.697 89.2328 58.853 89.4908 59.111C89.7488 59.369 89.8778 59.714 89.8778 60.146C89.8778 60.494 89.8088 60.788 89.6708 61.028C89.5328 61.262 89.3498 61.451 89.1218 61.595C88.8998 61.739 88.6418 61.844 88.3478 61.91C88.0598 61.97 87.7658 62 87.4658 62H85.1708V55.628ZM86.3048 58.22H87.3128C87.6908 58.22 87.9788 58.145 88.1768 57.995C88.3748 57.845 88.4738 57.632 88.4738 57.356C88.4738 57.068 88.3718 56.864 88.1678 56.744C87.9638 56.624 87.6458 56.564 87.2138 56.564H86.3048V58.22ZM86.3048 61.046H87.3218C87.4658 61.046 87.6218 61.037 87.7898 61.019C87.9578 60.995 88.1108 60.95 88.2488 60.884C88.3928 60.818 88.5098 60.722 88.5998 60.596C88.6958 60.47 88.7438 60.302 88.7438 60.092C88.7438 59.756 88.6298 59.522 88.4018 59.39C88.1738 59.258 87.8288 59.192 87.3668 59.192H86.3048V61.046ZM94.448 55.628H96.221L97.877 60.155H97.904L99.542 55.628H101.324V62H100.199V56.879H100.181L98.246 62H97.454L95.546 56.879H95.528V62H94.448V55.628ZM105.325 55.628H106.306L109.051 62H107.755L107.161 60.542H104.398L103.822 62H102.553L105.325 55.628ZM106.765 59.57L105.784 56.978L104.785 59.57H106.765ZM111.821 58.598L109.841 55.628H111.209L112.523 57.806L113.819 55.628H115.124L113.18 58.625L115.466 62H114.035L112.478 59.498L110.984 62H109.616L111.821 58.598Z" fill="#9B9B9B"/>
<mask id="path-5-inside-1" fill="white">
<path fill-rule="evenodd" clip-rule="evenodd" d="M0 5C0 2.23857 2.23858 0 5 0H180C182.761 0 185 2.23858 185 5V100.766C185 103.527 182.761 105.766 180 105.766H92.5H5C2.23858 105.766 0 103.527 0 100.766V5Z"/>
</mask>
<path d="M92.5 105.016H87.2917V106.516H92.5V105.016ZM83.125 105.016H72.7083V106.516H83.125V105.016ZM68.5417 105.016H58.125V106.516H68.5417V105.016ZM53.9583 105.016H43.5417V106.516H53.9583V105.016ZM39.375 105.016H28.9583V106.516H39.375V105.016ZM24.7917 105.016H14.375V106.516H24.7917V105.016ZM10.2083 105.016H5V106.516H10.2083V105.016ZM5 105.016C4.16776 105.016 3.3935 104.777 2.73915 104.365L1.93991 105.634C2.82656 106.193 3.87672 106.516 5 106.516V105.016ZM1.40047 103.026C0.988459 102.372 0.75 101.598 0.75 100.766H-0.75C-0.75 101.889 -0.427149 102.939 0.131134 103.826L1.40047 103.026ZM0.75 100.766V95.8795H-0.75V100.766H0.75ZM0.75 91.9707V82.1987H-0.75V91.9707H0.75ZM0.75 78.2899V68.5179H-0.75V78.2899H0.75ZM0.75 64.6091V54.8372H-0.75V64.6091H0.75ZM0.75 50.9284V41.1564H-0.75V50.9284H0.75ZM0.75 37.2476V27.4756H-0.75V37.2476H0.75ZM0.75 23.5668V13.7948H-0.75V23.5668H0.75ZM0.75 9.88599V5H-0.75V9.88599H0.75ZM0.75 5C0.75 4.16775 0.988459 3.39349 1.40047 2.73914L0.131133 1.9399C-0.427149 2.82655 -0.75 3.87672 -0.75 5H0.75ZM2.73915 1.40047C3.39349 0.988458 4.16775 0.75 5 0.75V-0.75C3.87672 -0.75 2.82656 -0.42715 1.93991 0.13113L2.73915 1.40047ZM5 0.75H9.80769V-0.75H5V0.75ZM13.6538 0.75H23.2692V-0.75H13.6538V0.75ZM27.1154 0.75H36.7308V-0.75H27.1154V0.75ZM40.5769 0.75H50.1923V-0.75H40.5769V0.75ZM54.0385 0.75H63.6539V-0.75H54.0385V0.75ZM67.5 0.75H77.1154V-0.75H67.5V0.75ZM80.9615 0.75H90.5769V-0.75H80.9615V0.75ZM94.4231 0.75H104.038V-0.75H94.4231V0.75ZM107.885 0.75H117.5V-0.75H107.885V0.75ZM121.346 0.75H130.962V-0.75H121.346V0.75ZM134.808 0.75H144.423V-0.75H134.808V0.75ZM148.269 0.75H157.885V-0.75H148.269V0.75ZM161.731 0.75H171.346V-0.75H161.731V0.75ZM175.192 0.75H180V-0.75H175.192V0.75ZM180 0.75C180.832 0.75 181.607 0.988459 182.261 1.40047L183.06 0.131133C182.173 -0.427149 181.123 -0.75 180 -0.75V0.75ZM183.6 2.73915C184.012 3.39349 184.25 4.16775 184.25 5H185.75C185.75 3.87672 185.427 2.82656 184.869 1.93991L183.6 2.73915ZM184.25 5V9.88599H185.75V5H184.25ZM184.25 13.7948V23.5668H185.75V13.7948H184.25ZM184.25 27.4756V37.2476H185.75V27.4756H184.25ZM184.25 41.1564V50.9284H185.75V41.1564H184.25ZM184.25 54.8372V64.6091H185.75V54.8372H184.25ZM184.25 68.5179V78.2899H185.75V68.5179H184.25ZM184.25 82.1987V91.9707H185.75V82.1987H184.25ZM184.25 95.8795V100.766H185.75V95.8795H184.25ZM184.25 100.766C184.25 101.598 184.012 102.372 183.6 103.026L184.869 103.826C185.427 102.939 185.75 101.889 185.75 100.766H184.25ZM182.261 104.365C181.607 104.777 180.832 105.016 180 105.016V106.516C181.123 106.516 182.173 106.193 183.06 105.634L182.261 104.365ZM180 105.016H174.792V106.516H180V105.016ZM170.625 105.016H160.208V106.516H170.625V105.016ZM156.042 105.016H145.625V106.516H156.042V105.016ZM141.458 105.016H131.042V106.516H141.458V105.016ZM126.875 105.016H116.458V106.516H126.875V105.016ZM112.292 105.016H101.875V106.516H112.292V105.016ZM97.7083 105.016H92.5V106.516H97.7083V105.016ZM92.5 104.266H87.2917V107.266H92.5V104.266ZM83.125 104.266H72.7083V107.266H83.125V104.266ZM68.5417 104.266H58.125V107.266H68.5417V104.266ZM53.9583 104.266H43.5417V107.266H53.9583V104.266ZM39.375 104.266H28.9583V107.266H39.375V104.266ZM24.7917 104.266H14.375V107.266H24.7917V104.266ZM10.2083 104.266H5V107.266H10.2083V104.266ZM5 104.266C4.31327 104.266 3.67696 104.069 3.13877 103.73L1.54029 106.269C2.54309 106.9 3.73121 107.266 5 107.266V104.266ZM2.03514 102.627C1.69626 102.089 1.5 101.452 1.5 100.766H-1.5C-1.5 102.034 -1.13495 103.222 -0.503534 104.225L2.03514 102.627ZM1.5 100.766V95.8795H-1.5V100.766H1.5ZM1.5 91.9707V82.1987H-1.5V91.9707H1.5ZM1.5 78.2899V68.5179H-1.5V78.2899H1.5ZM1.5 64.6091V54.8372H-1.5V64.6091H1.5ZM1.5 50.9284V41.1564H-1.5V50.9284H1.5ZM1.5 37.2476V27.4756H-1.5V37.2476H1.5ZM1.5 23.5668V13.7948H-1.5V23.5668H1.5ZM1.5 9.88599V5H-1.5V9.88599H1.5ZM1.5 5C1.5 4.31326 1.69626 3.67696 2.03514 3.13877L-0.503535 1.54028C-1.13495 2.54309 -1.5 3.7312 -1.5 5H1.5ZM3.13877 2.03514C3.67696 1.69626 4.31327 1.5 5 1.5V-1.5C3.73121 -1.5 2.54309 -1.13495 1.54029 -0.503538L3.13877 2.03514ZM5 1.5H9.80769V-1.5H5V1.5ZM13.6538 1.5H23.2692V-1.5H13.6538V1.5ZM27.1154 1.5H36.7308V-1.5H27.1154V1.5ZM40.5769 1.5H50.1923V-1.5H40.5769V1.5ZM54.0385 1.5H63.6539V-1.5H54.0385V1.5ZM67.5 1.5H77.1154V-1.5H67.5V1.5ZM80.9615 1.5H90.5769V-1.5H80.9615V1.5ZM94.4231 1.5H104.038V-1.5H94.4231V1.5ZM107.885 1.5H117.5V-1.5H107.885V1.5ZM121.346 1.5H130.962V-1.5H121.346V1.5ZM134.808 1.5H144.423V-1.5H134.808V1.5ZM148.269 1.5H157.885V-1.5H148.269V1.5ZM161.731 1.5H171.346V-1.5H161.731V1.5ZM175.192 1.5H180V-1.5H175.192V1.5ZM180 1.5C180.687 1.5 181.323 1.69626 181.861 2.03514L183.46 -0.503535C182.457 -1.13495 181.269 -1.5 180 -1.5V1.5ZM182.965 3.13877C183.304 3.67696 183.5 4.31327 183.5 5H186.5C186.5 3.73121 186.135 2.54309 185.504 1.54029L182.965 3.13877ZM183.5 5V9.88599H186.5V5H183.5ZM183.5 13.7948V23.5668H186.5V13.7948H183.5ZM183.5 27.4756V37.2476H186.5V27.4756H183.5ZM183.5 41.1564V50.9284H186.5V41.1564H183.5ZM183.5 54.8372V64.6091H186.5V54.8372H183.5ZM183.5 68.5179V78.2899H186.5V68.5179H183.5ZM183.5 82.1987V91.9707H186.5V82.1987H183.5ZM183.5 95.8795V100.766H186.5V95.8795H183.5ZM183.5 100.766C183.5 101.452 183.304 102.089 182.965 102.627L185.504 104.225C186.135 103.222 186.5 102.034 186.5 100.766H183.5ZM181.861 103.73C181.323 104.069 180.687 104.266 180 104.266V107.266C181.269 107.266 182.457 106.9 183.46 106.269L181.861 103.73ZM180 104.266H174.792V107.266H180V104.266ZM170.625 104.266H160.208V107.266H170.625V104.266ZM156.042 104.266H145.625V107.266H156.042V104.266ZM141.458 104.266H131.042V107.266H141.458V104.266ZM126.875 104.266H116.458V107.266H126.875V104.266ZM112.292 104.266H101.875V107.266H112.292V104.266ZM97.7083 104.266H92.5V107.266H97.7083V104.266Z" fill="#979797" mask="url(#path-5-inside-1)"/>
</g>
<defs>
<filter id="filter0_d" x="-34" y="-542" width="608" height="794" filterUnits="userSpaceOnUse" color-interpolation-filters="sRGB">
<feFlood flood-opacity="0" result="BackgroundImageFix"/>
<feColorMatrix in="SourceAlpha" type="matrix" values="0 0 0 0 0 0 0 0 0 0 0 0 0 0 0 0 0 0 127 0"/>
<feOffset dy="2"/>
<feGaussianBlur stdDeviation="2"/>
<feColorMatrix type="matrix" values="0 0 0 0 0 0 0 0 0 0 0 0 0 0 0 0 0 0 0.5 0"/>
<feBlend mode="normal" in2="BackgroundImageFix" result="effect1_dropShadow"/>
<feBlend mode="normal" in="SourceGraphic" in2="effect1_dropShadow" result="shape"/>
</filter>
<clipPath id="clip0">
<rect width="1440" height="786" fill="white" transform="translate(-870 -540)"/>
</clipPath>
</defs>
</svg>
